<?xml version="1.0" encoding="utf-8" standalone="no"?>
<!DOCTYPE svg PUBLIC "-//W3C//DTD SVG 1.1//EN" "http://www.w3.org/Graphics/SVG/1.1/DTD/svg11.dtd">
<svg xmlns="http://www.w3.org/2000/svg" xmlns:xl="http://www.w3.org/1999/xlink" version="1.1" viewBox="569 235 201 315" width="201pt" height="315pt" xmlns:dc="http://purl.org/dc/elements/1.1/"><metadata> Produced by OmniGraffle 6.0.3 <dc:date>2014-01-31 02:08Z</dc:date></metadata><defs/><g stroke="none" stroke-opacity="1" stroke-dasharray="none" fill="none" fill-opacity="1"><title>beer</title><g><title>Layer 1</title><path d="M 738.4706 235 C 738.4706 235 722.7059 247.11538 730.58824 279.42308 C 738.4706 311.73077 758.17647 327.88462 758.17647 380.38462 C 758.17647 432.88462 722.7059 457.11538 699.05882 457.11538 C 675.41176 457.11538 659.64706 457.11538 636 457.11538 C 612.35294 457.11538 580.82353 432.88462 580.82353 380.38462 C 580.82353 327.88462 596.58824 311.73077 604.4706 279.42308 C 612.35294 247.11538 596.58823 235 596.58824 235 L 584.7647 235 C 584.7647 235 600.5294 247.11538 592.64706 279.42308 C 584.7647 311.73077 569 327.88462 569 380.38462 C 569 432.88462 612.35294 469.23077 636 469.23077 C 638.724 469.23077 641.34343 469.23077 643.88235 469.23077 L 643.88235 469.23077 C 643.88235 475.9219 649.17593 481.34615 655.7059 481.34615 L 655.7059 519.02624 C 655.7059 520.66272 654.74207 522.13743 653.2653 522.76052 L 607.1278 542.22726 C 605.1151 543.07648 604.15532 545.4368 604.9841 547.49918 C 605.59216 549.0124 607.03134 550 608.6284 550 L 726.4304 550 C 728.60707 550 730.3716 548.19192 730.3716 545.96154 C 730.3716 544.32506 729.4078 542.85035 727.93102 542.22726 L 681.7935 522.76052 C 680.31675 522.13743 679.35294 520.66272 679.35294 519.02624 L 679.35294 481.34615 C 685.8829 481.34615 691.17647 475.9219 691.17647 469.23077 C 691.17647 469.23077 691.17647 469.23077 691.17647 469.23077 C 693.7154 469.23077 696.3348 469.23077 699.05882 469.23077 C 722.7059 469.23077 770 432.88462 770 380.38462 C 770 327.88462 750.2941 311.73077 742.41176 279.42308 C 734.5294 247.11538 750.2941 235 750.2941 235 Z" fill="black"/></g></g></svg>
