<?xml version="1.0" encoding="utf-8" standalone="no"?>
<!DOCTYPE svg PUBLIC "-//W3C//DTD SVG 1.1//EN" "http://www.w3.org/Graphics/SVG/1.1/DTD/svg11.dtd">
<svg xmlns="http://www.w3.org/2000/svg" xmlns:xl="http://www.w3.org/1999/xlink" version="1.1" viewBox="359 232 181 318" width="181pt" height="318pt" xmlns:dc="http://purl.org/dc/elements/1.1/"><metadata> Produced by OmniGraffle 6.0.3 <dc:date>2014-01-31 02:08Z</dc:date></metadata><defs/><g stroke="none" stroke-opacity="1" stroke-dasharray="none" fill="none" fill-opacity="1"><title>beer</title><g><title>Layer 1</title><path d="M 371.37572 232.43066 L 366.72007 232.43066 C 362.46464 232.43066 359.01494 235.88037 359.01494 240.13579 C 359.01494 240.39182 359.0277 240.6477 359.05318 240.90246 L 389.26909 543.06156 C 389.66298 547.00044 392.97746 550 396.93597 550 L 396.93597 550 L 502.0784 550 C 506.0369 550 509.3514 547.00044 509.74528 543.06156 L 539.9612 240.90248 C 540.3846 236.66817 537.2953 232.89233 533.061 232.4689 C 532.80622 232.44343 532.55035 232.43066 532.2943 232.43066 L 532.2943 232.43066 L 525.31798 232.43066 L 499.95436 530.56076 C 499.6151 534.5486 496.2792 537.61273 492.27697 537.61273 L 404.41673 537.61273 C 400.4145 537.61273 397.0786 534.5486 396.73934 530.56076 Z" fill="black"/></g></g></svg>
